<?xml version="1.0" encoding="utf-8"?>
<!-- Generator: Adobe Illustrator 17.0.0, SVG Export Plug-In . SVG Version: 6.00 Build 0)  -->
<!DOCTYPE svg PUBLIC "-//W3C//DTD SVG 1.1//EN" "http://www.w3.org/Graphics/SVG/1.1/DTD/svg11.dtd">
<svg version="1.1" id="Layer_1" xmlns="http://www.w3.org/2000/svg" xmlns:xlink="http://www.w3.org/1999/xlink" x="0px" y="0px"
	 width="186px" height="49.3px" viewBox="0 0 186 49.3" style="enable-background:new 0 0 186 49.3;" xml:space="preserve">
<style type="text/css">
	.st0{fill:#875539;}
	.st1{fill:#FFFFFF;}
</style>
<g>
	<path class="st0" d="M92.1,24.6c0,5.6-1.4,9.8-4.3,12.7c-1.2,1.2-2.6,2-4.3,2.6c-1.7,0.6-3.9,0.8-6.5,0.8H65.8V8.6h11.5
		c2.4,0,4.5,0.3,6.2,0.8c1.7,0.5,3.2,1.4,4.5,2.7c1.2,1.2,2.2,3,2.9,5.3C91.7,19.7,92.1,22.1,92.1,24.6z"/>
	<path class="st0" d="M30.4,32.2c0,3.3-1.3,5.7-3.8,7.4c-2.1,1.3-4.7,2-7.9,2c-3.9,0-6.9-1-8.9-3C8,36.7,7,34.2,7,31.1H10
		c0.2,2.7,1.2,4.7,2.8,5.9s3.8,1.9,6.5,1.9c2.8,0,4.9-0.7,6.3-2.1c1.3-1.2,1.9-2.7,1.9-4.4c0-1.3-0.3-2.4-0.9-3.2
		c-0.6-0.8-1.4-1.5-2.5-2.1c-0.6-0.3-3.1-1-7.3-2.1c-1.9-0.5-3.4-1-4.5-1.6c-1.3-0.7-2.3-1.5-3-2.4c-1-1.3-1.4-2.9-1.4-4.9
		c0-2.4,0.9-4.4,2.8-5.9c2-1.7,4.7-2.6,8.1-2.6c3.4,0,6.1,0.9,8.1,2.8c1.8,1.7,2.7,4,2.7,6.8h-2.9c0-2.3-0.8-4.1-2.5-5.4
		c-1.4-1.1-3.2-1.6-5.4-1.6c-2.4,0-4.4,0.5-5.8,1.6c-1.4,1.1-2.2,2.6-2.2,4.5c0,1.2,0.3,2.1,0.8,2.8c0.5,0.7,1.3,1.4,2.5,1.9
		c4,1.2,8,2.4,12.1,3.6C29,26.3,30.4,28.8,30.4,32.2z"/>
	<path class="st0" d="M61.5,40.7l-3.1,0l-3.7-10.1H40l-3.8,10.1l-3.1,0L45.7,8.6h3.4L61.5,40.7z M53.7,28l-6.3-16.9L41,28H53.7z"/>
	<path class="st0" d="M119.9,40.7H98.1V8.6h21.4v2.6h-18.4v11.6h16.6v2.6h-16.6v12.8h18.8V40.7z"/>
	<path class="st0" d="M147.3,40.7h-21.9V8.6h21.4v2.6h-18.4v11.6H145v2.6h-16.6v12.8h18.8V40.7z"/>
	<g>
		<path class="st1" d="M80.9,34.5H67.4c-0.2,0-0.3-0.1-0.3-0.3s0.1-0.3,0.3-0.3h13.6c0.2,0,0.3,0.1,0.3,0.3S81.1,34.5,80.9,34.5z"/>
		<path class="st1" d="M78.1,22.7c-0.2,0-0.3-0.1-0.3-0.3c0-0.1,0-0.2,0.1-0.2l3.3-3.3c0.1-0.1,0.3-0.1,0.4,0c0.1,0.1,0.1,0.3,0,0.4
			c0,0,0,0,0,0l-3.3,3.3C78.2,22.6,78.2,22.7,78.1,22.7L78.1,22.7z"/>
		<path class="st1" d="M89.2,28.2l-7.1-7.1l1.4-1.4c0.6,0.5,1.5,0.3,2-0.3c0.4-0.6,0.4-1.4-0.1-1.9l-5-5c-0.6-0.6-1.5-0.6-2,0
			c-0.5,0.5-0.6,1.3-0.1,1.9l-5,5c-0.6-0.5-1.5-0.3-2,0.3c-0.4,0.6-0.4,1.4,0.1,1.9l5,5c0.6,0.6,1.5,0.6,2,0
			c0.5-0.5,0.6-1.3,0.1-1.9l1.4-1.4l7.1,7.1c0.6,0.6,1.6,0.6,2.2,0S89.8,28.8,89.2,28.2L89.2,28.2z M78.8,13c0.3-0.3,0.8-0.3,1.1,0
			l5,5c0.3,0.3,0.3,0.8,0,1.1c-0.3,0.3-0.8,0.3-1.1,0L83.7,19l-4.8-4.8l-0.1-0.1C78.5,13.8,78.5,13.3,78.8,13L78.8,13z M78.7,14.9
			l4.4,4.4l-1.6,1.6l-0.9,0.9l-2.5,2.5l-4.4-4.4L78.7,14.9z M77.9,26.1c-0.3,0.3-0.8,0.3-1.1,0l-5-5c-0.3-0.3-0.3-0.8,0-1.1
			c0.3-0.3,0.8-0.3,1.1,0l5,5C78.2,25.3,78.2,25.8,77.9,26.1z M88.7,30c-0.4,0.4-0.9,0.4-1.3,0l-7.1-7.1l0.7-0.7l0.7-0.7l7.1,7.1
			C89.1,29,89.1,29.6,88.7,30L88.7,30z"/>
		<path class="st1" d="M81,31.5h-1.3c-0.2-1.1-1.1-2-2.3-2h-6.6c-1.1,0-2.1,0.8-2.3,2h-1.3c-0.2,0-0.3,0.1-0.3,0.3v3.6
			c0,0.2,0.1,0.3,0.3,0.3H81c0.2,0,0.3-0.1,0.3-0.3v-3.6C81.3,31.7,81.2,31.5,81,31.5L81,31.5z M70.9,30.2h6.6
			c0.8,0,1.5,0.6,1.6,1.3h-9.8C69.4,30.7,70.1,30.2,70.9,30.2L70.9,30.2z M80.7,35.1h-13v-2.9h13V35.1z"/>
		<g>
			<path class="st1" d="M72.4,26.2c-0.1,0-0.2,0-0.2-0.1l-1.7-1.7c-0.1-0.1-0.1-0.3,0-0.4s0.3-0.1,0.4,0c0,0,0,0,0,0l1.7,1.7
				c0.1,0.1,0.1,0.3,0,0.4C72.6,26.2,72.5,26.2,72.4,26.2L72.4,26.2z"/>
			<path class="st1" d="M71.6,28.3h-2.4c-0.2,0-0.3-0.1-0.3-0.3s0.1-0.3,0.3-0.3h2.4c0.2,0,0.3,0.1,0.3,0.3S71.8,28.3,71.6,28.3z"/>
		</g>
	</g>
	<path class="st0" d="M179,24.6c0,5.6-1.4,9.8-4.3,12.7c-1.2,1.2-2.6,2-4.3,2.6c-1.7,0.6-3.9,0.8-6.5,0.8h-11.2V8.6h11.5
		c2.4,0,4.5,0.3,6.2,0.8c1.7,0.5,3.2,1.4,4.5,2.7c1.2,1.2,2.2,3,2.9,5.3C178.6,19.7,179,22.1,179,24.6z"/>
	<g>
		<path class="st1" d="M171.5,36.4c0-1.2-0.9-2.1-2.1-2.1H161c-1.2,0-2.1,0.9-2.1,2.1v0.7h12.5V36.4z"/>
		<path class="st1" d="M175.7,19v-1.4h-8.5c-0.2-0.6-0.7-1.1-1.3-1.3v-3h-1.4v3c-0.6,0.2-1.1,0.7-1.3,1.3h-8.5V19h1.7l-3.1,7.7
			c0,1.9,1.6,3.5,3.5,3.5h1.4c1.9,0,3.5-1.6,3.5-3.5l-3.1-7.7h4.7c0.2,0.6,0.7,1.1,1.3,1.3v9.9c-1.4,0.3-2.4,1.3-2.7,2.7h6.8
			c-0.3-1.4-1.4-2.4-2.7-2.7v-9.9c0.6-0.2,1.1-0.7,1.3-1.3h4.7l-3.1,7.7c0,1.9,1.6,3.5,3.5,3.5h1.4c1.9,0,3.5-1.6,3.5-3.5L174,19
			H175.7z M160,26h-4.9l2.4-5.8L160,26z M175.4,26h-4.9l2.4-5.8L175.4,26z"/>
	</g>
</g>
</svg>
